<svg width="813" height="863" viewBox="0 0 813 863" fill="none" xmlns="http://www.w3.org/2000/svg">
<path d="M155.854 154.35C153.493 140.338 148.95 129.167 135.844 122.461C110.918 109.707 75.804 121.855 63.1906 88.2819C50.3738 54.1668 67.0346 18.6016 101.086 5.55956C146.936 -12.002 196.252 13.7797 213.632 58.4596C216.837 66.6614 219.072 75.5595 222.401 83.776C225.628 91.7414 228.832 98.9764 237.244 102.518L238.025 102.838C322.085 60.0553 423.821 52.088 514.436 77.029C527.123 80.4579 539.583 84.6859 551.731 89.6872C556.985 91.8021 579.781 102.88 582.628 101.907C594.819 97.7475 600.985 71.2078 605.228 60.6437C607.58 54.866 610.372 49.275 613.568 43.918C620.861 31.8048 630.792 21.4899 642.616 13.7387C681.35 -11.2513 738.435 -2.19896 756.443 44.1868C759.646 52.4309 760.803 66.2408 758.764 74.8675C758.562 83.5641 752.451 97.3471 746.303 102.629C715.321 129.265 676.654 97.9404 663.281 153.579C666.061 157.784 679.838 169.334 684.265 173.589C693.455 182.579 702.064 192.145 710.037 202.229C791.136 304.936 805.905 491.311 689.849 575.552C673.127 587.541 655.015 597.473 635.917 605.133C629.384 607.741 625.679 606.48 625.539 613.87C625.839 616.246 626.047 618.628 626.157 621.016C626.941 625.51 627.057 629.974 627.81 634.327C630.37 649.145 634.411 663.987 640.993 677.531C646.804 689.539 654.574 700.358 662.044 711.343C668.29 720.521 675.215 729.479 680.211 739.405C690.627 760.076 689.371 780.276 673.494 797.408C667.028 803.421 659.228 807.799 650.729 810.187C625.992 817.198 600.624 809.073 578.912 797.096C578.587 813.971 576.811 830.259 564.296 842.97C562.716 844.574 558.534 848.083 556.654 848.965C535.805 864.823 497.457 863.648 477.777 846.497C468.88 838.745 464.392 832.163 458.398 822.207L457.492 828.109C452.66 841.758 447.499 850.538 433.906 857.194C420.968 863.525 400.896 863.678 387.459 858.804C377.013 855.124 368.524 847.336 363.961 837.245C362.74 834.551 361.765 831.759 360.795 828.967L360.66 828.238C360.192 825.63 360.348 825.238 358.595 823.407C349.635 839.609 336.812 852.344 318.667 857.451C299.271 862.913 274.39 859.998 258.385 847.207C245.932 837.796 240.627 824.736 239.812 809.489C239.63 806.085 239.938 800.121 238.789 797.151C211.01 813.23 172.797 821.435 145.989 799.08C114.142 769.475 139.139 733.588 159.239 706.322C174.919 685.044 186.594 660.375 190.02 634.033C190.704 628.774 191.123 622.773 192.167 617.636L192.275 617.128L192.414 609.688C190.539 608.072 173.806 601.906 169.785 600.13C77.7132 559.559 36.5626 474.344 42.5736 375.788C47.0147 308.448 73.045 244.334 116.802 192.956C129.787 177.774 141.018 167.506 155.854 154.35Z" fill="#3D2DC7"/>
<path d="M192.414 609.688C198.873 610.472 209.387 615.125 215.972 617.072C233.109 622.038 250.405 626.435 267.831 630.262C346.272 646.886 431.653 647.908 510.812 636.697C536.143 633.139 561.216 627.947 585.874 621.144C593.038 619.173 600.165 617.06 607.243 614.795C610.881 613.631 621.167 610.086 624.406 609.682C625.276 611.562 625.227 611.868 625.539 613.87C625.839 616.246 626.047 618.628 626.158 621.016C624.217 623.483 612.044 630.347 608.878 632.08C568.834 654.031 520.253 667.722 474.894 673.515C392.559 684.034 299.23 673.943 223.541 638.479C214.351 634.174 201.901 628.039 193.386 622.106C192.247 621.31 192.403 618.714 192.275 617.128L192.414 609.688Z" fill="#172087"/>
<path d="M265.292 713.566C260.998 737.268 252.378 758.49 244.39 781.035C243.094 784.697 240.611 794.886 238.79 797.151C211.011 813.23 172.798 821.435 145.99 799.08C145.68 797.874 145.848 798.364 145.363 797.163L145.007 796.3C148.389 795.627 158.485 798.633 162.713 798.829C211.459 801.082 243.873 749.514 265.292 713.566Z" fill="#172087"/>
<path d="M578.912 797.096C576.695 793.116 574.368 783.019 572.55 778.164C564.376 756.396 556.801 735.051 551.707 712.274C572.427 748.994 609.184 805.154 658.854 798.364C663.061 797.788 667.286 796.331 671.492 795.627C671.976 795.535 673.201 797.029 673.494 797.408C667.029 803.421 659.228 807.799 650.729 810.187C625.992 817.198 600.624 809.073 578.912 797.096Z" fill="#172087"/>
<path d="M258.385 847.207C261.423 844.587 271.763 848.72 276.87 848.848C322.698 850.018 340.096 809.691 351.806 772.359C354.313 764.369 356.396 753.433 359.575 745.51C359.612 770.706 359.915 796.117 359.17 821.246C359.186 820.688 358.588 823.45 358.595 823.407C349.635 839.609 336.812 852.344 318.667 857.451C299.271 862.913 274.39 859.998 258.385 847.207Z" fill="#172087"/>
<path d="M458.172 743.814C466.291 774.766 478.304 823.725 507.585 840.619C517.731 846.62 528.869 849.069 540.643 849.05C542.749 849.044 553.232 846.473 555.981 847.256C556.061 847.275 556.581 848.634 556.655 848.965C535.806 864.823 497.457 863.648 477.778 846.497C468.881 838.745 464.393 832.163 458.398 822.207L458.362 767.124C458.307 760.107 458.698 750.482 458.172 743.814Z" fill="#172087"/>
<path d="M360.795 828.967L361.566 827.724C362.215 827.583 362.864 827.442 363.513 827.301C369.622 830.614 374.652 837.802 381.191 840.76C400.235 849.283 426.258 848.94 443.489 836.339C446.207 834.355 454.241 825.783 456.261 825.911L457.492 828.109C452.661 841.758 447.499 850.538 433.906 857.194C420.968 863.525 400.897 863.678 387.46 858.804C377.013 855.124 368.524 847.336 363.962 837.245C362.74 834.551 361.765 831.759 360.795 828.967Z" fill="#172087"/>
<path d="M139.469 248.007C272.518 246.511 288.829 483.799 146.729 491.863C36.6181 493.541 9.24252 349.37 72.3387 279.465C89.594 260.406 113.78 249.071 139.469 248.007Z" fill="#FBFAFA"/>
<path d="M68.0881 271.324C83.5009 269.41 99.3604 274.806 111.733 283.966C166.395 324.432 155.454 440.804 80.6216 450.554C74.8457 450.772 68.7078 450.988 63.0559 449.71C-21.454 430.557 -19.0256 282.653 68.0881 271.324Z" fill="#141414"/>
<path d="M53.7956 297.347C66.3682 294.733 78.675 302.822 81.2626 315.4C83.8496 327.979 75.7349 340.268 63.1519 342.829C50.6055 345.382 38.36 337.297 35.7808 324.756C33.201 312.215 41.2603 299.953 53.7956 297.347Z" fill="#FBFAFA"/>
<path d="M111.344 395.004C132.857 394.234 127.887 422.634 106.052 429.286C83.0342 429.543 89.1413 399.609 111.344 395.004Z" fill="#535353"/>
<path d="M668.836 339.023C691.326 338.521 713.222 346.277 730.385 360.823C782.468 405.2 787.911 496.924 744.101 549.411C725.083 572.189 702.654 580.742 673.674 582.892C648.22 583.124 625.063 576.701 606.063 559.195C555.107 512.244 556.595 418.055 602.854 369.014C619.975 350.626 643.726 339.831 668.836 339.023Z" fill="#FBFAFA"/>
<path d="M737.606 401.143C753.478 402.02 769.416 411.01 779.708 423.061C813.269 462.346 805.87 529.296 767.694 562.906C754.078 574.896 736.637 581.113 718.516 579.702C661.124 573.188 643.189 503.454 661.934 456.599C674.984 423.989 700.835 399.287 737.606 401.143Z" fill="#141414"/>
<path d="M718.512 424.417C726.919 423.909 734.943 427.978 739.495 435.059C744.046 442.139 744.424 451.128 740.474 458.562C736.529 465.999 728.868 470.722 720.458 470.916C707.776 471.207 697.194 461.291 696.667 448.619C696.141 435.947 705.855 425.184 718.512 424.417Z" fill="#FBFAFA"/>
<path d="M759.784 529.828C762.488 530.163 765.066 531.161 767.29 532.725C778.02 540.289 767.621 555.96 758.907 560.053C754.812 561.98 753.712 562.316 749.333 562.951C726.014 559.577 737.255 531.264 759.784 529.828Z" fill="#535353"/>
<path d="M684.693 18.5845C695.99 18.2527 716.962 22.5376 712.921 39.984C710.361 51.0502 693.07 54.5384 683.953 57.1022C679.409 58.3794 674.26 60.7344 669.496 62.8144C632.905 75.2123 631.27 23.8406 684.693 18.5845Z" fill="#172087"/>
<path d="M127.572 18.5888C128.859 18.5269 130.147 18.5043 131.435 18.5214C148.522 18.6941 176.196 30.105 175.891 50.9448C175.739 54.5806 174.242 58.1938 171.349 60.4728C166.065 64.6341 160.553 64.8539 154.293 64.2844C147.288 62.7292 142.764 59.5562 136.436 57.347C128.299 54.7245 121.524 54.4717 114.009 49.8096C104.967 44.2009 102.756 35.1485 109.397 26.4624C113.563 21.0141 120.887 19.3731 127.572 18.5888Z" fill="#172087"/>
</svg>
